<?xml version="1.0" standalone="no"?>
<!DOCTYPE svg PUBLIC "-//W3C//DTD SVG 1.1//EN" "http://www.w3.org/Graphics/SVG/1.1/DTD/svg11.dtd">
<!--Generator: Xara Designer (www.xara.com), SVG filter version: 6.0.0.3-->
<svg stroke-width="0.501" stroke-linejoin="bevel" fill-rule="evenodd" xmlns:xlink="http://www.w3.org/1999/xlink" xmlns="http://www.w3.org/2000/svg" version="1.1" overflow="visible" width="48pt" height="48pt" viewBox="0 0 48 48">
 <defs>
	</defs>
 <g id="Document" fill="none" stroke="black" font-family="Times New Roman" font-size="16" transform="scale(1 -1)">
  <g id="Spread" transform="translate(0 -48)">
   <g id="Layer 1">
    <g id="Group" fill="#f3f2f2" stroke-linejoin="miter" stroke-linecap="round" stroke="none" stroke-width="0.019" stroke-miterlimit="79.8403193612775">
     <path d="M 21.359,1.798 C 17.813,5.026 15.416,11.924 14.857,19.364 C 15.329,19.052 15.821,18.759 16.334,18.489 C 22.369,15.317 29.482,16.265 34.446,20.332 C 34.511,17.7 34.342,15.044 33.912,12.49 C 32.124,1.903 26.5,-2.887 21.359,1.798 Z M 17.052,19.855 C 16.176,20.313 15.369,20.847 14.632,21.447 C 14.473,21.567 14.324,21.693 14.248,21.779 C 13.996,21.976 13.764,22.191 13.581,22.381 C 13.42,22.527 13.269,22.68 13.201,22.772 C 12.981,22.985 12.777,23.212 12.63,23.401 C 12.48,23.563 12.341,23.733 12.282,23.831 C 12.085,24.061 11.908,24.303 11.782,24.504 C 11.648,24.673 11.529,24.853 11.477,24.952 C 11.304,25.205 11.146,25.465 11.036,25.687 C 10.926,25.855 10.83,26.031 10.785,26.135 C 10.629,26.416 10.489,26.708 10.386,26.971 C 10.306,27.117 10.241,27.269 10.206,27.367 C 10.041,27.757 9.897,28.155 9.774,28.555 C 9.76,28.588 9.748,28.624 9.742,28.643 C 9.61,29.071 9.496,29.504 9.406,29.942 C 9.242,30.68 9.138,31.431 9.112,32.188 C 9.084,32.384 9.074,32.582 9.081,32.674 C 9.066,32.886 9.066,33.099 9.081,33.218 C 9.072,33.516 9.082,33.815 9.11,34.051 C 9.113,34.271 9.133,34.492 9.157,34.61 C 9.177,34.908 9.216,35.207 9.268,35.438 C 9.29,35.655 9.329,35.872 9.364,35.99 C 9.414,36.292 9.485,36.594 9.562,36.835 C 9.601,37.036 9.658,37.236 9.702,37.356 C 9.79,37.675 9.897,37.99 10.016,38.266 C 10.062,38.43 10.125,38.591 10.174,38.699 C 10.352,39.146 10.556,39.583 10.784,40.015 C 13.18,44.575 17.606,47.382 22.371,47.91 C 22.848,47.962 23.328,47.991 23.808,47.999 C 26.216,48.033 28.665,47.482 30.946,46.285 C 38.242,42.451 41.047,33.416 37.215,26.123 C 36.87,25.472 36.487,24.856 36.054,24.291 C 35.838,23.987 35.664,23.756 35.578,23.644 C 35.59,23.659 35.603,23.673 35.616,23.688 C 35.495,23.539 35.499,23.539 35.578,23.644 C 34.872,22.828 34.652,22.6 34.422,22.388 C 29.922,17.984 22.924,16.769 17.052,19.855 Z M 25.62,21.897 C 26.608,22.536 26.893,23.856 26.255,24.844 C 25.617,25.832 24.297,26.117 23.308,25.479 C 22.319,24.841 22.035,23.521 22.675,22.532 C 23.312,21.544 24.632,21.259 25.62,21.897 Z M 26.099,29.796 C 27.892,30.955 28.407,33.35 27.249,35.143 C 26.092,36.934 23.697,37.45 21.904,36.292 C 20.113,35.135 19.597,32.742 20.755,30.947 C 21.912,29.156 24.307,28.64 26.099,29.796 Z M 15.801,30.791 C 16.79,31.43 17.074,32.748 16.436,33.736 C 15.798,34.726 14.477,35.011 13.489,34.372 C 12.501,33.734 12.217,32.414 12.856,31.424 C 13.493,30.436 14.813,30.154 15.801,30.791 Z M 34.514,31.715 C 35.502,32.352 35.786,33.672 35.148,34.662 C 34.51,35.65 33.19,35.935 32.2,35.296 C 31.212,34.658 30.93,33.338 31.567,32.35 C 32.204,31.362 33.524,31.078 34.514,31.715 Z M 24.695,40.61 C 25.684,41.247 25.968,42.567 25.331,43.555 C 24.692,44.545 23.373,44.829 22.384,44.19 C 21.395,43.551 21.111,42.233 21.749,41.243 C 22.388,40.255 23.708,39.971 24.695,40.61 Z" marker-start="none" marker-end="none"/>
    </g>
   </g>
  </g>
 </g>
</svg>
