<?xml version="1.0" standalone="no"?>
<!DOCTYPE svg PUBLIC "-//W3C//DTD SVG 1.1//EN" "http://www.w3.org/Graphics/SVG/1.1/DTD/svg11.dtd">
<!--Generator: Xara Designer (www.xara.com), SVG filter version: 6.0.0.3-->
<svg stroke-width="0.501" stroke-linejoin="bevel" fill-rule="evenodd" xmlns:xlink="http://www.w3.org/1999/xlink" xmlns="http://www.w3.org/2000/svg" version="1.1" overflow="visible" width="48pt" height="48pt" viewBox="0 0 48 48">
 <defs>
	</defs>
 <g id="Document" fill="none" stroke="black" font-family="Times New Roman" font-size="16" transform="scale(1 -1)">
  <g id="Spread" transform="translate(0 -48)">
   <g id="Layer 1">
    <g id="Group" stroke-linejoin="miter" stroke-linecap="round" stroke="none" fill="#f3f2f2">
     <path d="M 21.844,2.072 L 21.844,14.955 L 26.159,17.923 L 26.159,2.072 C 26.159,0.929 25.229,0 24.087,0 L 23.916,0 C 22.773,0 21.844,0.929 21.844,2.072 Z M 21.844,30.076 L 21.844,45.929 C 21.844,47.071 22.773,48 23.916,48 L 24.087,48 C 25.229,48 26.159,47.071 26.159,45.929 L 26.159,33.041 L 21.844,30.076 Z" stroke-width="0.033" marker-start="none" marker-end="none" stroke-miterlimit="79.8403193612775"/>
     <path d="M 40.109,38.445 L 5.173,14.422 L 7.892,10.468 L 42.828,34.491 L 40.109,38.445 Z" stroke-width="0.036" marker-start="none" marker-end="none" stroke-miterlimit="79.8403193612775"/>
    </g>
   </g>
  </g>
 </g>
</svg>
