<?xml version="1.0" standalone="no"?>
<!DOCTYPE svg PUBLIC "-//W3C//DTD SVG 1.1//EN" "http://www.w3.org/Graphics/SVG/1.1/DTD/svg11.dtd">
<!--Generator: Xara Designer (www.xara.com), SVG filter version: 6.0.0.3-->
<svg stroke-width="0.501" stroke-linejoin="bevel" fill-rule="evenodd" xmlns:xlink="http://www.w3.org/1999/xlink" xmlns="http://www.w3.org/2000/svg" version="1.1" overflow="visible" width="48pt" height="48pt" viewBox="0 0 48 48">
 <defs>
	</defs>
 <g id="Document" fill="none" stroke="black" font-family="Times New Roman" font-size="16" transform="scale(1 -1)">
  <g id="Spread" transform="translate(0 -48)">
   <g id="Layer 1">
    <path d="M 5.879,0 L 5.879,48 L 23.886,48 C 27.553,48 30.493,47.514 32.709,46.542 C 34.926,45.57 36.66,44.075 37.916,42.057 C 39.171,40.039 39.799,37.928 39.799,35.722 C 39.799,33.669 39.241,31.738 38.127,29.928 C 37.016,28.114 35.333,26.652 33.086,25.539 C 35.989,24.689 38.221,23.235 39.781,21.184 C 41.344,19.134 42.122,16.71 42.122,13.917 C 42.122,11.668 41.649,9.578 40.699,7.647 C 39.748,5.714 38.576,4.226 37.179,3.177 C 35.782,2.129 34.03,1.338 31.923,0.802 C 29.818,0.268 27.235,0 24.18,0 L 5.879,0 Z M 12.229,27.831 L 22.609,27.831 C 25.424,27.831 27.444,28.016 28.665,28.387 C 30.282,28.868 31.498,29.666 32.317,30.777 C 33.134,31.891 33.544,33.288 33.544,34.968 C 33.544,36.561 33.163,37.965 32.398,39.176 C 31.635,40.388 30.543,41.216 29.125,41.665 C 27.706,42.112 25.272,42.336 21.824,42.336 L 12.229,42.336 L 12.229,27.831 Z M 12.229,5.666 L 24.18,5.666 C 26.233,5.666 27.671,5.742 28.501,5.895 C 29.964,6.156 31.186,6.592 32.169,7.205 C 33.152,7.815 33.958,8.706 34.592,9.872 C 35.224,11.04 35.542,12.387 35.542,13.917 C 35.542,15.706 35.083,17.262 34.165,18.582 C 33.25,19.903 31.977,20.829 30.351,21.365 C 28.726,21.899 26.385,22.167 23.33,22.167 L 12.229,22.167 L 12.229,5.666 Z" fill-rule="nonzero" stroke-linejoin="round" stroke-linecap="round" stroke="none" stroke-width="0.7" fill="#f3f2f2" marker-start="none" marker-end="none" stroke-miterlimit="79.8403193612775"/>
   </g>
  </g>
 </g>
</svg>
