<?xml version="1.0" standalone="no"?>
<!DOCTYPE svg PUBLIC "-//W3C//DTD SVG 1.1//EN" "http://www.w3.org/Graphics/SVG/1.1/DTD/svg11.dtd">
<!--Generator: Xara Designer (www.xara.com), SVG filter version: 6.0.0.3-->
<svg stroke-width="0.501" stroke-linejoin="bevel" fill-rule="evenodd" xmlns:xlink="http://www.w3.org/1999/xlink" xmlns="http://www.w3.org/2000/svg" version="1.1" overflow="visible" width="48pt" height="48pt" viewBox="0 0 48 48">
 <defs>
	</defs>
 <g id="Document" fill="none" stroke="black" font-family="Times New Roman" font-size="16" transform="scale(1 -1)">
  <g id="Spread" transform="translate(0 -48)">
   <g id="Layer 1">
    <g id="Group" stroke-linejoin="miter" stroke-linecap="round" stroke="none" fill="#f3f2f2">
     <path d="M 9.598,23.069 C 8.93,23.681 8.479,24.857 8.479,26.207 L 8.479,26.955 C 8.026,27.099 7.585,27.289 7.165,27.525 L 6.618,27.017 C 5.643,26.111 4.494,25.639 3.597,25.695 C 3.057,26.171 2.565,26.703 2.126,27.285 C 2.141,28.181 2.691,29.289 3.661,30.192 L 4.206,30.701 C 4.074,30.982 3.962,31.27 3.867,31.565 L 3.121,31.565 C 1.822,31.565 0.685,31.984 0.054,32.609 C -0.022,33.372 -0.015,34.132 0.069,34.874 C 0.702,35.492 1.832,35.904 3.121,35.904 L 3.869,35.904 C 4.013,36.356 4.203,36.797 4.438,37.217 L 4.441,37.215 L 3.93,37.763 C 3.071,38.687 2.603,39.77 2.603,40.643 C 3.117,41.237 3.697,41.777 4.335,42.249 C 5.206,42.185 6.247,41.642 7.106,40.722 L 7.619,40.17 L 7.615,40.175 C 7.898,40.306 8.186,40.419 8.479,40.513 L 8.479,41.261 C 8.479,42.513 8.867,43.615 9.457,44.257 C 10.259,44.349 11.056,44.347 11.836,44.259 C 12.427,43.619 12.818,42.514 12.818,41.261 L 12.818,40.513 C 13.268,40.367 13.71,40.178 14.13,39.942 L 14.678,40.451 C 15.603,41.314 16.69,41.782 17.567,41.778 C 18.155,41.277 18.692,40.71 19.164,40.085 C 19.114,39.206 18.568,38.145 17.634,37.275 L 17.087,36.766 C 17.22,36.484 17.334,36.196 17.426,35.904 L 18.175,35.904 C 19.475,35.904 20.615,35.484 21.244,34.856 C 21.328,34.105 21.331,33.36 21.259,32.628 C 20.633,31.992 19.486,31.565 18.175,31.565 L 17.426,31.565 C 17.282,31.113 17.092,30.672 16.856,30.25 L 17.366,29.705 C 18.276,28.728 18.746,27.572 18.687,26.673 C 18.223,26.14 17.703,25.649 17.136,25.213 C 16.232,25.212 15.106,25.764 14.19,26.748 L 13.68,27.295 C 13.399,27.161 13.11,27.048 12.818,26.955 L 12.818,26.207 C 12.818,24.857 12.364,23.68 11.696,23.068 C 10.99,22.997 10.287,23 9.598,23.069 Z M 12.735,31.565 C 13.931,32.717 13.968,34.625 12.816,35.821 C 11.664,37.018 9.757,37.054 8.561,35.902 C 7.363,34.752 7.327,32.844 8.479,31.646 C 9.63,30.45 11.538,30.413 12.735,31.565 Z M 17.083,36.762 L 17.087,36.766 L 17.083,36.762 Z" stroke-width="0.024" marker-start="none" marker-end="none" stroke-miterlimit="79.8403193612775"/>
     <path d="M 22.496,43.297 L 22.496,17.661 C 22.496,16.599 23.248,15.737 24.176,15.737 L 24.176,15.737 C 25.104,15.737 25.856,16.599 25.856,17.661 L 25.856,43.297 C 25.856,44.359 25.104,45.221 24.176,45.221 L 24.176,45.221 C 23.248,45.221 22.496,44.359 22.496,43.297 Z" stroke-width="0.024" marker-start="none" marker-end="none" stroke-miterlimit="79.8403193612775"/>
     <path d="M 18.765,11.432 L 20.412,8.581 C 20.801,7.907 21.434,6.81 21.823,6.136 L 23.469,3.285 C 23.858,2.611 24.491,2.611 24.881,3.285 L 26.527,6.136 C 26.916,6.81 27.55,7.907 27.939,8.581 L 29.585,11.432 C 29.974,12.106 29.658,12.654 28.879,12.654 L 25.587,12.655 C 24.808,12.655 23.543,12.655 22.764,12.655 L 19.471,12.655 C 18.692,12.655 18.376,12.107 18.765,11.432 Z" stroke-width="0.019" marker-start="none" marker-end="none" stroke-miterlimit="79.8403193612775"/>
     <path d="M 36.288,23.069 C 35.62,23.681 35.169,24.857 35.169,26.207 L 35.169,26.955 C 34.716,27.099 34.274,27.289 33.854,27.525 L 33.308,27.017 C 32.333,26.111 31.184,25.639 30.286,25.695 C 29.746,26.171 29.254,26.703 28.816,27.285 C 28.83,28.181 29.381,29.289 30.35,30.192 L 30.896,30.701 C 30.764,30.982 30.652,31.27 30.557,31.565 L 29.81,31.565 C 28.512,31.565 27.375,31.984 26.745,32.609 C 26.668,33.372 26.675,34.132 26.759,34.874 C 27.392,35.492 28.522,35.904 29.81,35.904 L 30.558,35.904 C 30.702,36.356 30.893,36.797 31.129,37.217 L 31.13,37.215 L 30.62,37.763 C 29.761,38.687 29.293,39.77 29.293,40.643 C 29.806,41.237 30.386,41.777 31.025,42.249 C 31.896,42.185 32.938,41.642 33.796,40.722 L 34.309,40.17 L 34.305,40.175 C 34.588,40.306 34.876,40.419 35.169,40.513 L 35.169,41.261 C 35.169,42.513 35.557,43.615 36.146,44.257 C 36.949,44.349 37.746,44.347 38.526,44.259 C 39.117,43.619 39.507,42.514 39.507,41.261 L 39.507,40.513 C 39.958,40.367 40.399,40.178 40.819,39.942 L 41.367,40.451 C 42.293,41.314 43.379,41.782 44.257,41.778 C 44.845,41.277 45.382,40.71 45.854,40.085 C 45.803,39.206 45.258,38.145 44.323,37.275 L 43.777,36.766 C 43.91,36.484 44.023,36.196 44.115,35.904 L 44.865,35.904 C 46.164,35.904 47.304,35.484 47.934,34.856 C 48.018,34.105 48.02,33.36 47.948,32.628 C 47.323,31.992 46.175,31.565 44.865,31.565 L 44.115,31.565 C 43.971,31.113 43.782,30.672 43.546,30.25 L 44.055,29.705 C 44.966,28.728 45.435,27.572 45.377,26.673 C 44.913,26.14 44.394,25.649 43.826,25.213 C 42.922,25.212 41.795,25.764 40.879,26.748 L 40.37,27.295 C 40.089,27.161 39.801,27.048 39.507,26.955 L 39.507,26.207 C 39.507,24.857 39.054,23.68 38.386,23.068 C 37.679,22.997 36.977,23 36.288,23.069 Z M 39.425,31.565 C 40.621,32.717 40.658,34.625 39.506,35.821 C 38.354,37.018 36.446,37.054 35.25,35.902 C 34.053,34.752 34.017,32.844 35.169,31.646 C 36.32,30.45 38.227,30.413 39.425,31.565 Z M 43.773,36.762 L 43.777,36.766 L 43.773,36.762 Z" stroke-width="0.024" marker-start="none" marker-end="none" stroke-miterlimit="79.8403193612775"/>
    </g>
   </g>
  </g>
 </g>
</svg>
