<?xml version="1.0" standalone="no"?>
<!DOCTYPE svg PUBLIC "-//W3C//DTD SVG 1.1//EN" "http://www.w3.org/Graphics/SVG/1.1/DTD/svg11.dtd">
<!--Generator: Xara Designer (www.xara.com), SVG filter version: 6.0.0.3-->
<svg stroke-width="0.501" stroke-linejoin="bevel" fill-rule="evenodd" xmlns:xlink="http://www.w3.org/1999/xlink" xmlns="http://www.w3.org/2000/svg" version="1.1" overflow="visible" width="48pt" height="48pt" viewBox="0 0 48 48">
 <defs>
	</defs>
 <g id="Document" fill="none" stroke="black" font-family="Times New Roman" font-size="16" transform="scale(1 -1)">
  <g id="Spread" transform="translate(0 -48)">
   <g id="Layer 1">
    <g id="Group" fill="#f3f2f2" stroke-linejoin="miter" stroke-linecap="round" stroke="none" stroke-width="0.019" stroke-miterlimit="79.8403193612775">
     <path d="M 7.014,6.462 C 5.828,11.108 7.621,18.187 11.246,24.708 C 11.469,24.188 11.719,23.672 11.998,23.165 C 15.294,17.196 21.755,14.075 28.138,14.741 C 26.744,12.507 25.142,10.382 23.378,8.486 C 16.062,0.628 8.73,-0.279 7.014,6.462 Z M 13.349,23.911 C 12.87,24.775 12.49,25.665 12.204,26.571 C 12.137,26.759 12.082,26.946 12.066,27.06 C 11.964,27.363 11.889,27.67 11.84,27.929 C 11.786,28.14 11.744,28.351 11.738,28.465 C 11.671,28.764 11.626,29.066 11.607,29.304 C 11.571,29.522 11.548,29.741 11.553,29.855 C 11.515,30.155 11.5,30.455 11.506,30.692 C 11.487,30.907 11.486,31.122 11.497,31.234 C 11.492,31.54 11.503,31.844 11.533,32.09 C 11.534,32.291 11.551,32.491 11.57,32.602 C 11.594,32.923 11.638,33.244 11.697,33.52 C 11.71,33.686 11.74,33.849 11.764,33.95 C 11.841,34.366 11.94,34.778 12.057,35.179 C 12.063,35.215 12.073,35.251 12.079,35.271 C 12.204,35.701 12.347,36.125 12.513,36.54 C 12.782,37.247 13.108,37.931 13.503,38.578 C 13.587,38.757 13.688,38.928 13.744,39.001 C 13.848,39.186 13.965,39.364 14.043,39.455 C 14.2,39.709 14.372,39.953 14.526,40.135 C 14.649,40.317 14.787,40.49 14.872,40.576 C 15.053,40.813 15.25,41.042 15.421,41.206 C 15.558,41.375 15.71,41.535 15.804,41.614 C 16.012,41.839 16.238,42.052 16.435,42.211 C 16.578,42.357 16.735,42.493 16.838,42.569 C 17.087,42.787 17.35,42.991 17.601,43.156 C 17.729,43.268 17.871,43.368 17.971,43.431 C 18.365,43.706 18.776,43.959 19.204,44.194 C 23.713,46.685 28.954,46.594 33.224,44.414 C 33.651,44.195 34.067,43.955 34.473,43.698 C 36.502,42.402 38.244,40.595 39.491,38.34 C 43.475,31.125 40.848,22.037 33.636,18.054 C 32.99,17.7 32.331,17.396 31.659,17.163 C 31.311,17.028 31.039,16.931 30.905,16.884 C 30.923,16.89 30.942,16.895 30.961,16.9 C 30.778,16.842 30.781,16.84 30.905,16.884 C 29.867,16.591 29.558,16.522 29.249,16.471 C 23.068,15.269 16.556,18.103 13.349,23.911 Z M 21.628,20.903 C 22.805,20.893 23.769,21.839 23.779,23.015 C 23.79,24.191 22.844,25.155 21.668,25.166 C 20.491,25.177 19.527,24.231 19.518,23.053 C 19.506,21.878 20.452,20.914 21.628,20.903 Z M 26.373,27.236 C 28.508,27.218 30.255,28.935 30.275,31.069 C 30.294,33.201 28.577,34.949 26.443,34.969 C 24.311,34.987 22.564,33.273 22.543,31.137 C 22.524,29.005 24.241,27.256 26.373,27.236 Z M 18.32,33.732 C 19.498,33.721 20.46,34.666 20.47,35.842 C 20.482,37.019 19.536,37.984 18.359,37.994 C 17.183,38.005 16.22,37.058 16.209,35.88 C 16.198,34.705 17.145,33.743 18.32,33.732 Z M 34.456,24.21 C 35.632,24.198 36.595,25.144 36.607,26.322 C 36.617,27.498 35.672,28.462 34.493,28.473 C 33.317,28.484 32.356,27.537 32.344,26.361 C 32.333,25.186 33.279,24.222 34.456,24.21 Z M 31.149,37.039 C 32.325,37.027 33.288,37.973 33.3,39.149 C 33.311,40.327 32.366,41.29 31.188,41.3 C 30.011,41.311 29.049,40.366 29.037,39.188 C 29.027,38.012 29.973,37.049 31.149,37.039 Z" marker-start="none" marker-end="none"/>
    </g>
   </g>
  </g>
 </g>
</svg>
