<?xml version="1.0" standalone="no"?>
<!DOCTYPE svg PUBLIC "-//W3C//DTD SVG 1.1//EN" "http://www.w3.org/Graphics/SVG/1.1/DTD/svg11.dtd">
<!--Generator: Xara Designer (www.xara.com), SVG filter version: 6.0.0.3-->
<svg stroke-width="0.501" stroke-linejoin="bevel" fill-rule="evenodd" xmlns:xlink="http://www.w3.org/1999/xlink" xmlns="http://www.w3.org/2000/svg" version="1.1" overflow="visible" width="48pt" height="48pt" viewBox="0 0 48 48">
 <defs>
	</defs>
 <g id="Document" fill="none" stroke="black" font-family="Times New Roman" font-size="16" transform="scale(1 -1)">
  <g id="Spread" transform="translate(0 -48)">
   <g id="Layer 1">
    <g id="Group" stroke-linecap="round" fill="#f3f2f2">
     <path d="M 23.97,18.901 L 10.595,29.78 L 8.322,29.78 L 8.322,37.147 L 12.204,37.147 L 12.204,48 L 37.631,48 L 37.631,37.147 L 41.513,37.147 L 41.513,29.78 L 39.238,29.78 L 25.864,18.901 L 23.97,18.901 Z" stroke-linejoin="miter" stroke="none" stroke-width="0.026" marker-start="none" marker-end="none" stroke-miterlimit="79.8403193612775"/>
     <path d="M 24.843,16.848 L 24.843,15.087 C 24.843,14.533 25.386,13.837 25.94,13.836 L 39.393,13.804 C 42.214,13.712 42.214,9.786 39.424,9.786 L 8.612,9.848 C 5.452,9.505 5.508,5.986 8.536,5.782 L 39.471,5.782 C 42.309,5.743 42.664,1.533 39.591,1.514 L 16.95,1.514" fill="none" stroke-width="3.027" stroke="#f3f2f2" stroke-linejoin="round" stroke-miterlimit="79.8403193612775"/>
    </g>
   </g>
  </g>
 </g>
</svg>
