<?xml version="1.0" standalone="no"?>
<!DOCTYPE svg PUBLIC "-//W3C//DTD SVG 1.1//EN" "http://www.w3.org/Graphics/SVG/1.1/DTD/svg11.dtd">
<!--Generator: Xara Designer (www.xara.com), SVG filter version: 6.0.0.3-->
<svg stroke-width="0.501" stroke-linejoin="bevel" fill-rule="evenodd" xmlns:xlink="http://www.w3.org/1999/xlink" xmlns="http://www.w3.org/2000/svg" version="1.1" overflow="visible" width="48pt" height="48pt" viewBox="0 0 48 48">
 <defs>
	</defs>
 <g id="Document" fill="none" stroke="black" font-family="Times New Roman" font-size="16" transform="scale(1 -1)">
  <g id="Spread" transform="translate(0 -48)">
   <g id="Layer 1">
    <path d="M 41.413,20.25 C 41.413,20.172 41.406,20.117 41.391,20.085 C 40.39,15.898 38.297,12.504 35.109,9.903 C 31.922,7.3 28.188,6 23.905,6 C 21.626,6 19.419,6.429 17.285,7.289 C 15.153,8.148 13.249,9.375 11.579,10.968 L 8.554,7.945 C 8.257,7.648 7.907,7.5 7.5,7.5 C 7.094,7.5 6.742,7.648 6.445,7.945 C 6.149,8.242 6,8.594 6,9.001 L 6,19.5 C 6,19.907 6.149,20.257 6.445,20.554 C 6.742,20.851 7.094,21 7.5,21 L 18,21 C 18.407,21 18.758,20.851 19.054,20.554 C 19.351,20.257 19.5,19.907 19.5,19.5 C 19.5,19.094 19.351,18.742 19.054,18.445 L 15.843,15.234 C 16.953,14.204 18.211,13.406 19.617,12.843 C 21.023,12.281 22.485,12 24,12 C 26.094,12 28.047,12.509 29.859,13.524 C 31.671,14.54 33.125,15.938 34.218,17.718 C 34.39,17.985 34.804,18.899 35.46,20.46 C 35.586,20.82 35.82,21 36.164,21 L 40.664,21 C 40.866,21 41.043,20.925 41.191,20.778 C 41.338,20.628 41.413,20.452 41.413,20.25 Z M 42,39 L 42,28.5 C 42,28.093 41.851,27.743 41.555,27.446 C 41.258,27.149 40.906,27 40.5,27 L 30,27 C 29.593,27 29.242,27.149 28.946,27.446 C 28.649,27.743 28.5,28.093 28.5,28.5 C 28.5,28.906 28.649,29.258 28.946,29.555 L 32.179,32.788 C 29.867,34.929 27.141,36 24,36 C 21.906,36 19.953,35.491 18.141,34.476 C 16.329,33.46 14.875,32.062 13.781,30.281 C 13.61,30.015 13.196,29.101 12.538,27.539 C 12.414,27.18 12.18,27 11.835,27 L 7.172,27 C 6.97,27 6.792,27.074 6.645,27.222 C 6.496,27.371 6.421,27.546 6.421,27.75 L 6.421,27.914 C 7.437,32.102 9.546,35.496 12.75,38.097 C 15.953,40.698 19.703,42 24,42 C 26.281,42 28.5,41.566 30.656,40.7 C 32.813,39.832 34.726,38.609 36.399,37.032 L 39.446,40.055 C 39.743,40.352 40.093,40.5 40.5,40.5 C 40.906,40.5 41.258,40.352 41.555,40.055 C 41.851,39.758 42,39.406 42,39 Z" fill="#ff0000" stroke="none" stroke-width="0.908" fill-rule="nonzero" stroke-linejoin="miter" stroke-linecap="round" marker-start="none" marker-end="none" stroke-miterlimit="79.8403193612775"/>
   </g>
  </g>
 </g>
</svg>
