<?xml version="1.0" standalone="no"?>
<!DOCTYPE svg PUBLIC "-//W3C//DTD SVG 1.1//EN" "http://www.w3.org/Graphics/SVG/1.1/DTD/svg11.dtd">
<!--Generator: Xara Designer (www.xara.com), SVG filter version: 6.0.0.3-->
<svg stroke-width="0.501" stroke-linejoin="bevel" fill-rule="evenodd" xmlns:xlink="http://www.w3.org/1999/xlink" xmlns="http://www.w3.org/2000/svg" version="1.1" overflow="visible" width="48pt" height="48pt" viewBox="0 0 48 48">
 <defs>
	</defs>
 <g id="Document" fill="none" stroke="black" font-family="Times New Roman" font-size="16" transform="scale(1 -1)">
  <g id="Spread" transform="translate(0 -48)">
   <g id="Layer 1">
    <g id="Group" fill="#f3f2f2" stroke-linejoin="miter" stroke-linecap="round" stroke="none">
     <g id="Group_1">
      <path d="M 2.932,12.508 C -3.412,24.138 0.879,38.725 12.509,45.067 C 24.137,51.411 38.725,47.122 45.069,35.491 C 51.412,23.862 47.121,9.275 35.492,2.931 C 23.864,-3.411 9.275,0.879 2.932,12.508 Z M 34.636,4.502 C 45.398,10.373 49.37,23.873 43.498,34.633 C 37.629,45.399 24.127,49.368 13.364,43.498 C 2.603,37.627 -1.369,24.127 4.503,13.364 C 10.372,2.601 23.873,-1.368 34.636,4.502 Z" stroke-width="0.029" marker-start="none" marker-end="none" stroke-miterlimit="79.8403193612775"/>
      <g id="Group_2" stroke-width="0.044" stroke-miterlimit="79.8403193612775">
       <path d="M 26.52,9.643 C 25.984,9.747 22.438,12.27 22.624,17.243 C 23.984,18.114 24.48,18.904 24.993,19.519 C 25.397,20.004 26.236,21.681 26.431,22.353 C 25.318,22.085 24.773,21.689 23.517,21.424 C 23.241,20.268 21.317,17.942 18.458,17.435 C 15.24,16.86 12.372,18.34 10.072,19.942 C 11.771,19.501 13.466,18.83 16.136,18.966 C 16.194,24.856 18.233,29.271 18.667,29.837 C 17.577,29.096 17.22,28.443 16.906,27.701 C 16.721,28.18 16.537,28.661 16.413,28.954 C 16.926,31.511 17.478,32.631 18.599,34.577 C 20.761,35.733 21.892,36.044 23.361,36.576 C 25.707,36.5 27.029,35.715 27.892,35.249 C 28.26,34.458 29.446,32.299 29.283,31.626 C 29.539,32.693 29.03,34.554 28.911,35.342 C 28.746,35.541 27.704,36.5 26.89,36.735 C 28.423,37.691 33.348,38.987 34.349,38.547 C 38.412,37.13 39.967,34.343 40.69,32.906 C 40.964,31.556 40.362,29.234 39.526,27.817 C 37.273,26.771 33.601,24.123 32.886,22.755 C 33.882,23.588 38.012,26.127 40.129,26.471 C 40.538,27.044 41.011,27.753 41.27,28.482 C 41.528,27.844 41.841,25.938 41.834,24.391 C 41.507,13.423 31.991,9.336 26.52,9.643 Z M 26.425,29.047 C 26.751,29.564 26.577,30.195 25.853,30.025 C 25.851,30.025 25.009,29.582 24.777,29.347 C 24.367,28.922 23.953,27.849 24.023,27.166 C 24.708,27.963 25.869,28.723 26.425,29.047 Z" marker-start="none" marker-end="none"/>
       <path d="M 20.09,36.544 C 19.355,36.234 17.868,35.525 17.526,35.21 C 14.747,29.785 15.129,28.607 15.072,28.136 C 15.429,27.543 15.61,27.126 15.993,26.574 C 16.08,26.455 14.881,23.008 15.044,20.495 C 13.604,23.053 9.629,25.808 9.301,26.206 C 8.383,27.228 6.214,31.646 6.167,32.118 C 7.29,34.037 10.561,37.551 14.166,39.137 C 16.1,38.526 18.254,37.649 20.09,36.544 Z" marker-start="none" marker-end="none"/>
       <path d="M 14.468,16.562 C 17.433,15.597 20.395,16.044 21.579,16.518 C 21.206,13.447 23.587,9.848 25.555,9.011 C 25.331,8.024 25.311,6.872 25.311,6.055 C 21.355,7.616 19.033,9.379 16.765,14.789 C 16.435,14.879 15.599,15.176 14.82,16.025 L 14.468,16.562 Z" marker-start="none" marker-end="none"/>
      </g>
     </g>
    </g>
   </g>
  </g>
 </g>
</svg>
