<?xml version="1.0" standalone="no"?>
<!DOCTYPE svg PUBLIC "-//W3C//DTD SVG 1.1//EN" "http://www.w3.org/Graphics/SVG/1.1/DTD/svg11.dtd">
<!--Generator: Xara Designer (www.xara.com), SVG filter version: 6.0.0.3-->
<svg stroke-width="0.501" stroke-linejoin="bevel" fill-rule="evenodd" xmlns:xlink="http://www.w3.org/1999/xlink" xmlns="http://www.w3.org/2000/svg" version="1.1" overflow="visible" width="48pt" height="48pt" viewBox="0 0 48 48">
 <defs>
	</defs>
 <g id="Document" fill="none" stroke="black" font-family="Times New Roman" font-size="16" transform="scale(1 -1)">
  <g id="Spread" transform="translate(0 -48)">
   <g id="Layer 1">
    <path d="M 20.866,32.055 C 20.062,30.823 19.145,28.994 18.112,26.571 C 17.818,27.173 17.57,27.659 17.369,28.028 C 17.169,28.395 16.898,28.821 16.557,29.303 C 16.215,29.785 15.874,30.163 15.532,30.437 C 15.19,30.712 14.769,30.947 14.266,31.14 C 13.765,31.335 13.22,31.433 12.629,31.433 L 8.129,31.433 C 7.942,31.433 7.788,31.492 7.668,31.614 C 7.547,31.733 7.486,31.887 7.486,32.075 L 7.486,35.932 C 7.486,36.12 7.547,36.273 7.668,36.394 C 7.788,36.514 7.942,36.575 8.129,36.575 L 12.629,36.575 C 15.977,36.575 18.724,35.068 20.866,32.055 Z M 43.304,16.466 C 43.425,16.346 43.486,16.192 43.486,16.005 C 43.486,15.816 43.425,15.662 43.304,15.543 L 36.876,9.113 C 36.755,8.994 36.602,8.933 36.414,8.933 C 36.24,8.933 36.089,8.998 35.962,9.124 C 35.834,9.25 35.771,9.401 35.771,9.576 L 35.771,13.433 C 35.342,13.433 34.774,13.431 34.064,13.423 C 33.354,13.416 32.812,13.41 32.436,13.403 C 32.063,13.396 31.572,13.403 30.971,13.423 C 30.368,13.443 29.892,13.477 29.544,13.523 C 29.195,13.57 28.767,13.64 28.258,13.735 C 27.749,13.828 27.327,13.952 26.993,14.105 C 26.657,14.259 26.269,14.451 25.827,14.678 C 25.386,14.906 24.99,15.174 24.643,15.482 C 24.294,15.79 23.926,16.148 23.537,16.557 C 23.149,16.966 22.775,17.432 22.412,17.953 C 23.203,19.198 24.113,21.027 25.144,23.437 C 25.438,22.835 25.686,22.349 25.888,21.98 C 26.089,21.613 26.36,21.187 26.701,20.705 C 27.043,20.223 27.384,19.845 27.726,19.569 C 28.068,19.296 28.49,19.061 28.991,18.866 C 29.493,18.673 30.04,18.575 30.629,18.575 L 35.771,18.575 L 35.771,22.432 C 35.771,22.621 35.832,22.775 35.951,22.895 C 36.072,23.015 36.227,23.075 36.414,23.075 C 36.575,23.075 36.735,23.008 36.896,22.875 L 43.304,16.466 Z M 43.304,34.465 C 43.425,34.346 43.486,34.192 43.486,34.003 C 43.486,33.816 43.425,33.662 43.304,33.542 L 36.876,27.113 C 36.755,26.993 36.602,26.933 36.414,26.933 C 36.24,26.933 36.089,26.997 35.962,27.124 C 35.834,27.252 35.771,27.402 35.771,27.576 L 35.771,31.433 L 30.629,31.433 C 29.986,31.433 29.402,31.332 28.881,31.13 C 28.358,30.93 27.897,30.629 27.494,30.226 C 27.093,29.826 26.751,29.414 26.471,28.991 C 26.189,28.569 25.888,28.05 25.566,27.434 C 25.138,26.605 24.615,25.459 24,24 C 23.611,23.115 23.28,22.372 23.005,21.769 C 22.731,21.166 22.369,20.464 21.92,19.661 C 21.472,18.857 21.042,18.188 20.635,17.651 C 20.226,17.117 19.73,16.559 19.148,15.985 C 18.565,15.409 17.962,14.95 17.34,14.608 C 16.718,14.267 16.005,13.985 15.201,13.765 C 14.397,13.544 13.541,13.433 12.629,13.433 L 8.129,13.433 C 7.942,13.433 7.788,13.494 7.668,13.614 C 7.547,13.735 7.486,13.888 7.486,14.076 L 7.486,17.933 C 7.486,18.121 7.547,18.275 7.668,18.394 C 7.788,18.516 7.942,18.575 8.129,18.575 L 12.629,18.575 C 13.272,18.575 13.855,18.676 14.376,18.877 C 14.9,19.078 15.362,19.379 15.764,19.78 C 16.165,20.182 16.506,20.594 16.787,21.016 C 17.069,21.438 17.369,21.957 17.692,22.573 C 18.12,23.403 18.642,24.549 19.258,26.008 C 19.647,26.891 19.978,27.636 20.252,28.238 C 20.527,28.84 20.888,29.544 21.337,30.347 C 21.786,31.151 22.215,31.82 22.624,32.357 C 23.032,32.891 23.528,33.449 24.111,34.024 C 24.693,34.6 25.295,35.058 25.918,35.4 C 26.54,35.741 27.254,36.023 28.058,36.243 C 28.861,36.464 29.719,36.575 30.629,36.575 L 35.771,36.575 L 35.771,40.432 C 35.771,40.619 35.832,40.773 35.951,40.893 C 36.072,41.014 36.227,41.075 36.414,41.075 C 36.575,41.075 36.735,41.008 36.896,40.875 L 43.304,34.465 Z" fill="#f3f2f2" stroke="none" stroke-width="0.019" fill-rule="nonzero" stroke-linejoin="miter" stroke-linecap="round" marker-start="none" marker-end="none" stroke-miterlimit="79.8403193612775"/>
   </g>
  </g>
 </g>
</svg>
