<?xml version="1.0" standalone="no"?>
<!DOCTYPE svg PUBLIC "-//W3C//DTD SVG 1.1//EN" "http://www.w3.org/Graphics/SVG/1.1/DTD/svg11.dtd">
<!--Generator: Xara Designer (www.xara.com), SVG filter version: 6.0.0.3-->
<svg stroke-width="0.501" stroke-linejoin="bevel" fill-rule="evenodd" xmlns:xlink="http://www.w3.org/1999/xlink" xmlns="http://www.w3.org/2000/svg" version="1.1" overflow="visible" width="48pt" height="48pt" viewBox="0 0 48 48">
 <defs>
	</defs>
 <g id="Document" fill="none" stroke="black" font-family="Times New Roman" font-size="16" transform="scale(1 -1)">
  <g id="Spread" transform="translate(0 -48)">
   <g id="Layer 1">
    <g id="Group" stroke-linejoin="miter" stroke-linecap="round" stroke="none" fill="#f3f2f2">
     <path d="M 27.955,42.279 C 29.459,41.6 33.055,38.986 33.156,34.259 C 33.207,31.801 31.773,29.643 30.285,27.851 C 28.824,26.091 25.326,23.59 25.081,23.525 C 24.617,24.91 23.184,28.295 23.124,28.358 C 25.88,29.95 27.674,32.918 27.826,34.774 L 27.955,42.279 Z" stroke-width="0.036" marker-start="none" marker-end="none" stroke-miterlimit="79.8403193612775"/>
     <path d="M 16.177,12.591 C 15.753,13.379 15.158,15.086 14.976,16.17 C 14.475,19.139 15.464,21.54 16.909,22.985 L 19.873,15.986 C 20.787,14.277 23.064,13.608 25.334,14.625 C 26.814,15.288 27.651,16.647 26.713,19.419 L 25.465,22.311 L 29.274,25.288 C 30.329,23.442 32.854,18.692 31.251,14.274 C 30.445,12.049 28.046,8.651 23.67,8.611 C 19.603,8.573 17.338,10.428 16.177,12.591 Z" stroke-width="0.036" marker-start="none" marker-end="none" stroke-miterlimit="79.8403193612775"/>
     <path d="M 20.488,42.271 L 20.637,33.724 C 20.947,30.645 21.235,30.08 22.464,27.023 L 25.275,20.238 C 26.017,17.78 25.59,16.823 24.418,16.236 C 22.62,15.335 21.191,15.879 20.467,17.394 L 15.986,28.801 C 15.012,31.362 14.829,33.451 15.151,35.379 C 15.257,36.016 15.768,38.096 17.113,39.916 C 17.978,41.087 18.594,41.871 20.488,42.271 Z" stroke-width="0.036" marker-start="none" marker-end="none" stroke-miterlimit="79.8403193612775"/>
     <path d="M 26.833,47.951 L 22.028,48.001 L 21.901,35.849 C 21.88,33.946 22.397,31.519 22.863,30.22 C 24.994,31.829 26.713,33.144 26.71,36.171 L 26.833,47.951 Z" stroke-width="0.032" marker-start="none" marker-end="none" stroke-miterlimit="79.8403193612775"/>
     <path d="M 23.719,7.136 C 24.701,7.145 25.566,7.45 26.325,7.779 L 26.249,0 L 21.552,0.049 L 21.628,7.29 C 22.256,7.157 22.951,7.129 23.719,7.136 Z" stroke-width="0.032" marker-start="none" marker-end="none" stroke-miterlimit="79.8403193612775"/>
    </g>
   </g>
  </g>
 </g>
</svg>
