<?xml version="1.0" standalone="no"?>
<!DOCTYPE svg PUBLIC "-//W3C//DTD SVG 1.1//EN" "http://www.w3.org/Graphics/SVG/1.1/DTD/svg11.dtd">
<!--Generator: Xara Designer (www.xara.com), SVG filter version: 6.0.0.3-->
<svg stroke-width="0.501" stroke-linejoin="bevel" fill-rule="evenodd" xmlns:xlink="http://www.w3.org/1999/xlink" xmlns="http://www.w3.org/2000/svg" version="1.1" overflow="visible" width="48pt" height="48pt" viewBox="0 0 48 48">
 <defs>
	</defs>
 <g id="Document" fill="none" stroke="black" font-family="Times New Roman" font-size="16" transform="scale(1 -1)">
  <g id="Spread" transform="translate(0 -48)">
   <g id="Layer 1">
    <g id="Group" stroke-linejoin="miter" stroke-linecap="round" stroke="none" fill="#f3f2f2">
     <g id="Group_1">
      <path d="M 38.404,24.906 C 39.071,24.293 39.523,23.118 39.523,21.769 L 39.523,21.021 C 39.975,20.877 40.416,20.686 40.837,20.45 L 41.384,20.958 C 42.357,21.865 43.508,22.336 44.404,22.281 C 44.944,21.805 45.437,21.273 45.875,20.689 C 45.86,19.793 45.309,18.686 44.34,17.784 L 43.795,17.274 C 43.928,16.993 44.04,16.704 44.133,16.41 L 44.881,16.41 C 46.179,16.41 47.316,15.992 47.947,15.366 C 48.023,14.604 48.017,13.844 47.932,13.101 C 47.299,12.484 46.169,12.072 44.881,12.072 L 44.133,12.072 C 43.988,11.62 43.799,11.178 43.563,10.758 L 43.561,10.76 L 44.071,10.212 C 44.931,9.288 45.399,8.205 45.397,7.332 C 44.884,6.738 44.305,6.198 43.665,5.726 C 42.796,5.79 41.753,6.334 40.896,7.253 L 40.381,7.806 L 40.387,7.8 C 40.104,7.669 39.816,7.556 39.523,7.462 L 39.523,6.714 C 39.523,5.462 39.133,4.36 38.545,3.718 C 37.743,3.626 36.944,3.628 36.164,3.716 C 35.573,4.356 35.183,5.461 35.183,6.714 L 35.183,7.462 C 34.732,7.608 34.292,7.797 33.871,8.033 L 33.324,7.524 C 32.397,6.661 31.312,6.193 30.435,6.197 C 29.845,6.698 29.309,7.265 28.837,7.89 C 28.888,8.769 29.432,9.83 30.367,10.7 L 30.913,11.209 C 30.781,11.492 30.668,11.78 30.576,12.072 L 29.827,12.072 C 28.527,12.072 27.387,12.492 26.757,13.12 C 26.672,13.87 26.669,14.616 26.741,15.348 C 27.367,15.984 28.516,16.41 29.827,16.41 L 30.576,16.41 C 30.719,16.862 30.909,17.304 31.145,17.725 L 30.636,18.27 C 29.725,19.248 29.255,20.404 29.315,21.302 C 29.779,21.836 30.297,22.326 30.865,22.762 C 31.768,22.764 32.895,22.212 33.811,21.228 L 34.32,20.681 C 34.601,20.814 34.891,20.928 35.183,21.021 L 35.183,21.769 C 35.183,23.118 35.637,24.296 36.304,24.908 C 37.012,24.977 37.713,24.976 38.404,24.906 Z M 35.267,16.41 C 34.069,15.258 34.033,13.35 35.185,12.154 C 36.336,10.957 38.244,10.921 39.441,12.073 C 40.637,13.224 40.675,15.132 39.523,16.329 C 38.372,17.525 36.463,17.562 35.267,16.41 Z M 30.919,11.213 L 30.913,11.209 L 30.919,11.213 Z" stroke-width="0.024" marker-start="none" marker-end="none" stroke-miterlimit="79.8403193612775"/>
      <path d="M 25.504,4.678 L 25.504,30.315 C 25.504,31.376 24.752,32.239 23.824,32.239 L 23.824,32.239 C 22.896,32.239 22.144,31.376 22.144,30.315 L 22.144,4.678 C 22.144,3.617 22.896,2.754 23.824,2.754 L 23.824,2.754 C 24.752,2.754 25.504,3.617 25.504,4.678 Z" stroke-width="0.024" marker-start="none" marker-end="none" stroke-miterlimit="79.8403193612775"/>
      <path d="M 29.199,36.593 L 27.553,39.445 C 27.164,40.119 26.53,41.216 26.141,41.89 L 24.495,44.741 C 24.106,45.415 23.473,45.415 23.084,44.741 L 21.437,41.89 C 21.048,41.216 20.415,40.119 20.025,39.445 L 18.379,36.594 C 17.99,35.92 18.306,35.371 19.085,35.371 L 22.377,35.371 C 23.156,35.371 24.421,35.371 25.201,35.371 L 28.493,35.371 C 29.273,35.371 29.589,35.919 29.199,36.593 Z" stroke-width="0.019" marker-start="none" marker-end="none" stroke-miterlimit="79.8403193612775"/>
      <path d="M 11.713,24.906 C 12.38,24.293 12.832,23.118 12.832,21.769 L 12.832,21.021 C 13.285,20.877 13.727,20.686 14.147,20.45 L 14.693,20.958 C 15.668,21.865 16.817,22.336 17.715,22.281 C 18.253,21.805 18.747,21.273 19.184,20.689 C 19.169,19.793 18.62,18.686 17.651,17.784 L 17.104,17.274 C 17.237,16.993 17.349,16.704 17.444,16.41 L 18.191,16.41 C 19.489,16.41 20.627,15.992 21.256,15.366 C 21.333,14.604 21.327,13.844 21.241,13.101 C 20.609,12.484 19.479,12.072 18.191,12.072 L 17.443,12.072 C 17.299,11.62 17.108,11.178 16.872,10.758 L 16.871,10.76 L 17.381,10.212 C 18.24,9.288 18.708,8.205 18.707,7.332 C 18.195,6.738 17.615,6.198 16.976,5.726 C 16.105,5.79 15.063,6.334 14.205,7.253 L 13.692,7.806 L 13.696,7.8 C 13.413,7.669 13.125,7.556 12.832,7.462 L 12.832,6.714 C 12.832,5.462 12.444,4.36 11.855,3.718 C 11.052,3.626 10.255,3.628 9.475,3.716 C 8.884,4.356 8.493,5.461 8.493,6.714 L 8.493,7.462 C 8.043,7.608 7.601,7.797 7.181,8.033 L 6.633,7.524 C 5.708,6.661 4.621,6.193 3.744,6.197 C 3.156,6.698 2.619,7.265 2.147,7.89 C 2.197,8.769 2.743,9.83 3.677,10.7 L 4.224,11.209 C 4.091,11.492 3.977,11.78 3.885,12.072 L 3.136,12.072 C 1.836,12.072 0.696,12.492 0.067,13.12 C -0.017,13.87 -0.02,14.616 0.052,15.348 C 0.677,15.984 1.825,16.41 3.136,16.41 L 3.885,16.41 C 4.029,16.862 4.219,17.304 4.455,17.725 L 3.945,18.27 C 3.035,19.248 2.565,20.404 2.624,21.302 C 3.088,21.836 3.607,22.326 4.175,22.762 C 5.079,22.764 6.205,22.212 7.121,21.228 L 7.631,20.681 C 7.912,20.814 8.2,20.928 8.493,21.021 L 8.493,21.769 C 8.493,23.118 8.947,24.296 9.615,24.908 C 10.321,24.977 11.024,24.976 11.713,24.906 Z M 8.576,16.41 C 7.38,15.258 7.343,13.35 8.495,12.154 C 9.647,10.957 11.555,10.921 12.751,12.073 C 13.948,13.224 13.984,15.132 12.832,16.329 C 11.681,17.525 9.773,17.562 8.576,16.41 Z M 4.228,11.213 L 4.224,11.209 L 4.228,11.213 Z" stroke-width="0.024" marker-start="none" marker-end="none" stroke-miterlimit="79.8403193612775"/>
     </g>
    </g>
   </g>
  </g>
 </g>
</svg>
