<?xml version="1.0" standalone="no"?>
<!DOCTYPE svg PUBLIC "-//W3C//DTD SVG 1.1//EN" "http://www.w3.org/Graphics/SVG/1.1/DTD/svg11.dtd">
<!--Generator: Xara Designer (www.xara.com), SVG filter version: 6.0.0.3-->
<svg stroke-width="0.501" stroke-linejoin="bevel" fill-rule="evenodd" xmlns:xlink="http://www.w3.org/1999/xlink" xmlns="http://www.w3.org/2000/svg" version="1.1" overflow="visible" width="48pt" height="48pt" viewBox="0 0 48 48">
 <defs>
	</defs>
 <g id="Document" fill="none" stroke="black" font-family="Times New Roman" font-size="16" transform="scale(1 -1)">
  <g id="Spread" transform="translate(0 -48)">
   <g id="Layer 1">
    <g id="Group" fill="#f3f2f2" stroke-linejoin="miter" stroke-linecap="round" stroke="none" stroke-width="0.023" stroke-miterlimit="79.8403193612775">
     <path d="M 23.957,23.431 L 12.664,32.616 L 10.745,32.616 L 10.745,38.836 L 14.024,38.836 L 14.024,48 L 35.492,48 L 35.492,38.836 L 38.769,38.836 L 38.769,32.616 L 36.849,32.616 L 25.556,23.431 L 23.957,23.431 Z" marker-start="none" marker-end="none"/>
     <path d="M 9.231,1.613 L 9.231,7.555 C 9.231,8.445 9.953,9.168 10.844,9.168 L 14.372,9.168 L 14.372,19.479 C 14.372,20.229 14.98,20.839 15.729,20.839 L 15.729,20.839 C 16.479,20.839 17.087,20.229 17.087,19.479 L 17.087,9.168 L 19.203,9.168 L 19.203,19.479 C 19.203,20.229 19.811,20.839 20.56,20.839 L 20.56,20.839 C 21.309,20.839 21.917,20.229 21.917,19.479 L 21.917,9.168 L 24.033,9.168 L 24.033,19.479 C 24.033,20.229 24.641,20.839 25.391,20.839 L 25.391,20.839 C 26.14,20.839 26.748,20.229 26.748,19.479 L 26.748,9.168 L 28.864,9.168 L 28.864,19.479 C 28.864,20.229 29.472,20.839 30.221,20.839 L 30.221,20.839 C 30.971,20.839 31.579,20.229 31.579,19.479 L 31.579,9.168 L 33.695,9.168 L 33.695,19.479 C 33.695,20.229 34.303,20.839 35.052,20.839 L 35.052,20.839 C 35.801,20.839 36.409,20.229 36.409,19.479 L 36.409,9.168 L 37.156,9.168 C 38.047,9.168 38.769,8.445 38.769,7.555 L 38.769,1.613 C 38.769,0.724 38.047,0 37.156,0 L 10.844,0 C 9.953,0 9.231,0.724 9.231,1.613 Z" marker-start="none" marker-end="none"/>
    </g>
   </g>
  </g>
 </g>
</svg>
